<?xml version="1.0" standalone="no"?>
<!DOCTYPE svg PUBLIC "-//W3C//DTD SVG 20010904//EN"
 "http://www.w3.org/TR/2001/REC-SVG-20010904/DTD/svg10.dtd">
<svg version="1.0" xmlns="http://www.w3.org/2000/svg"
 width="812.000000pt" height="812.000000pt" viewBox="0 0 812.000000 812.000000"
 preserveAspectRatio="xMidYMid meet">
<metadata>
Created by potrace 1.16, written by Peter Selinger 2001-2019
</metadata>
<g transform="translate(0.000000,812.000000) scale(0.100000,-0.100000)"
fill="#000000" stroke="none">
<path d="M0 4060 l0 -4060 4060 0 4060 0 0 4060 0 4060 -4060 0 -4060 0 0
-4060z m2758 -2804 c-16 -12 -16 -17 -2 -72 24 -92 29 -94 53 -30 25 67 26 85
6 92 -30 12 -14 24 33 24 43 -1 45 -2 28 -15 -18 -14 -18 -16 0 -85 10 -38 20
-70 23 -70 4 0 18 34 33 75 26 72 26 75 8 75 -11 0 -20 5 -20 10 0 6 18 10 40
10 22 0 40 -4 40 -10 0 -5 -4 -10 -9 -10 -4 0 -26 -45 -47 -100 -21 -55 -44
-100 -50 -100 -6 0 -20 29 -30 65 -10 36 -21 65 -24 65 -4 0 -15 -28 -26 -62
-12 -38 -26 -63 -34 -63 -9 0 -25 34 -44 98 -18 60 -34 97 -43 97 -7 0 -13 5
-13 10 0 6 21 10 48 10 40 -1 45 -2 30 -14z m586 -92 c20 -62 25 -61 50 9 16
42 21 47 49 47 26 0 29 -2 15 -12 -12 -10 -15 -26 -11 -75 3 -35 9 -63 14 -63
5 0 9 -4 9 -10 0 -5 -14 -10 -30 -10 -26 0 -29 2 -19 18 7 12 8 32 2 62 l-9
45 -22 -63 c-13 -34 -26 -62 -30 -62 -5 0 -16 25 -27 56 -26 77 -39 79 -33 5
4 -58 3 -61 -19 -61 -23 0 -31 14 -14 24 14 9 23 117 10 132 -9 11 -6 14 18
14 27 0 31 -5 47 -56z"/>
</g>
</svg>
